<svg width="20" height="22" viewBox="0 0 20 22" fill="none" xmlns="http://www.w3.org/2000/svg">
    <path d="M19.448 6.836c-.813.005-.733 1.513-1.745.801-.377-.263-.608-.646-1.08-.763-.412-.102-.835.004-1.242.075-.463.08-1.012.116-1.363.47-.34.339-.519.794-.88 1.135-.699.662-.994 1.384-.541 2.32.435.899 1.345 1.387 2.327 1.323.965-.065 1.967-.628 1.94.782-.011.5.093.845.245 1.309.141.427.131.841.164 1.283.06.824.21 1.748.617 2.476l.76-1.076c.093-.134.289-.32.335-.478.082-.278-.08-.756-.099-1.068-.018-.312-.01-.628-.057-.94-.067-.438-.324-.847-.359-1.28-.065-.804.08-1.446-.535-2.119-.595-.649-1.467-.804-2.3-.672-.42.066-2.111.337-1.433-.628.134-.19.369-.346.52-.526.13-.157.244-.447.398-.57.154-.122.86-.263 1.063-.2.202.062.413.356.588.486.325.246.703.41 1.104.477.691.101 2.136-.303 2.125-1.194-.002-.428-.397-1.023-.552-1.423zm-8 7.336c-.27-1.142-1.813-1.523-2.645-2.143-.478-.356-.903-.906-1.531-.95-.29-.022-.532.041-.819-.034-.263-.068-.47-.21-.75-.173-.523.07-.853.632-1.416.556-.534-.073-1.084-.7-1.205-1.212-.156-.657.361-.87.915-.93.231-.024.49-.05.713.035.292.11.43.397.693.543.492.271.592-.162.517-.602-.113-.659-.245-.927.34-1.38.404-.313.75-.539.685-1.1-.038-.33-.218-.479-.05-.807.127-.25.475-.476.702-.625.587-.384 2.512-.356 1.726-1.433-.232-.316-.658-.88-1.063-.958-.506-.096-.73.472-1.083.722-.364.26-1.074.553-1.439.153-.49-.54.326-.716.506-1.092.181-.376-.418-1.087-.739-1.267l-1.508 1.7a2.125 2.125 0 0 0 .422 1.622c.3.389.778.513.8 1.043.02.51-.058.77-.39 1.128-.142.152-.244.37-.39.512-.178.175-.112.121-.39.17-.525.088-.97.226-1.477.366-.844.235-.922-1.152-1.307-1.696L.001 7.347c-.014.169.207.479.267.662.346 1.047 1.043 1.856 1.493 2.858.474 1.06 1.747.766 2.31 1.696.498.824-.034 1.868.339 2.73.271.627.91.764 1.352 1.222.45.463.44 1.096.51 1.698.077.708.203 1.41.377 2.1.06.24.117.555.28.752.11.135.493.252.338.296.216.036.6.239.78.09.236-.195.173-.797.214-1.069.123-.809.526-1.6 1.07-2.206.536-.597 1.272-1.002 1.725-1.68.442-.66.575-1.55.392-2.324zm-1.69 1.34c-.303.545-.98.91-1.414 1.343-.118.117-.369.524-.516.436-.106-.063-.142-.591-.181-.712a3.112 3.112 0 0 0-1.099-1.524c-.158-.12-.55-.278-.641-.443-.101-.18-.01-.604-.007-.8.006-.284-.123-.758-.053-1.017.08-.299-.075-.118.19-.178.14-.031.72.071.894.108.277.058.43.232.649.407.574.464 1.207.822 1.851 1.178.5.277.646.63.327 1.202zM6.237 1.49c.24.235.465.514.823.538.338.023.658-.162.953.07.328.254.564.577 1 .656.42.077.866-.17.97-.604.101-.412-.117-.861-.13-1.275 0-.058.031-.313-.008-.357-.03-.032-.275.004-.312.005a10.429 10.429 0 0 0-3.714.803c.123.085.278.12.418.164zm8.699 2.859c.43 0 .866-.194.727-.693-.116-.42-.315-.874-.797-.648-.307.144-.743.51-.778.872-.041.41.562.469.848.469zm-.343 2.187c.439.264 1.09.14 1.42-.238.259-.295.41-.807.876-.807.205 0 .401.08.547.225.193.2.155.388.196.638.091.562.69.032.847-.186.101-.142.238-.352.192-.537-.042-.173-.242-.356-.332-.515-.26-.458-.474-.99-.863-1.36-.375-.357-.836-.316-1.192.054-.291.306-.63.548-.829.919-.14.261-.299.386-.584.453-.157.038-.336.051-.467.157-.367.29-.158.987.189 1.197z" fill="#CDA274"/>
</svg>
