<svg width="32" height="25" viewBox="0 0 32 25" fill="none" xmlns="http://www.w3.org/2000/svg">
    <path d="M6.843 24.07c-1.87 0-3.4-.623-4.59-1.87-1.133-1.247-1.7-2.918-1.7-5.015 0-3.683 1.218-6.885 3.655-9.605C6.701 4.86 9.676 2.622 13.133.865l.85 1.445c-1.417.907-2.748 2.068-3.995 3.485a17.532 17.532 0 0 0-2.805 4.59l2.38 1.785c.963.623 1.757 1.473 2.38 2.55.623 1.02.935 2.012.935 2.975 0 1.813-.567 3.343-1.7 4.59-1.077 1.19-2.522 1.785-4.335 1.785zm17.51 0c-1.87 0-3.4-.623-4.59-1.87-1.133-1.247-1.7-2.918-1.7-5.015 0-3.683 1.218-6.885 3.655-9.605 2.493-2.72 5.468-4.958 8.925-6.715l.85 1.445c-1.417.907-2.748 2.068-3.995 3.485a17.532 17.532 0 0 0-2.805 4.59l2.38 1.785c.963.623 1.757 1.473 2.38 2.55.623 1.02.935 2.012.935 2.975 0 1.813-.567 3.343-1.7 4.59-1.077 1.19-2.522 1.785-4.335 1.785z" fill="#292F36"/>
</svg>
